<svg xmlns="http://www.w3.org/2000/svg" viewBox="0 0 83.094 83.094">
  <defs>
    <style>
      .cls-1 {
        fill: #fff;
      }
    </style>
  </defs>
  <path id="facebook" class="cls-1" d="M78.51,0H4.584A4.585,4.585,0,0,0,0,4.584V78.51a4.583,4.583,0,0,0,4.584,4.584h39.8V50.916H33.546V38.379H44.379V29.118c0-10.73,6.558-16.567,16.131-16.567a89.574,89.574,0,0,1,9.68.488V24.257H63.539c-5.193,0-6.2,2.5-6.2,6.132v8H69.744l-1.61,12.568h-10.8V83.094H78.507a4.581,4.581,0,0,0,4.587-4.584V4.584A4.583,4.583,0,0,0,78.51,0"/>
</svg>
