<svg xmlns="http://www.w3.org/2000/svg" viewBox="0 0 83.09 83.09">
  <defs>
    <style>
      .cls-1 {
        fill: #fff;
      }
    </style>
  </defs>
  <path id="instagram" class="cls-1" d="M41.545,0C30.259,0,28.85.052,24.418.249A30.634,30.634,0,0,0,14.333,2.181a20.345,20.345,0,0,0-7.36,4.792,20.271,20.271,0,0,0-4.792,7.36A30.545,30.545,0,0,0,.249,24.418C.042,28.85,0,30.259,0,41.545s.052,12.7.249,17.127A30.653,30.653,0,0,0,2.181,68.757a20.374,20.374,0,0,0,4.792,7.36,20.316,20.316,0,0,0,7.36,4.792,30.672,30.672,0,0,0,10.085,1.932c4.431.208,5.841.249,17.127.249s12.7-.052,17.127-.249a30.743,30.743,0,0,0,10.085-1.932A21.232,21.232,0,0,0,80.909,68.757a30.653,30.653,0,0,0,1.932-10.085c.208-4.431.249-5.841.249-17.127s-.052-12.7-.249-17.127a30.724,30.724,0,0,0-1.932-10.085,20.39,20.39,0,0,0-4.792-7.36,20.242,20.242,0,0,0-7.36-4.792A30.564,30.564,0,0,0,58.672.249C54.24.042,52.831,0,41.545,0Zm0,7.478c11.089,0,12.412.055,16.791.246a22.89,22.89,0,0,1,7.71,1.437,13.672,13.672,0,0,1,7.887,7.883,22.938,22.938,0,0,1,1.43,7.71c.2,4.383.242,5.7.242,16.791s-.052,12.412-.256,16.791a23.38,23.38,0,0,1-1.458,7.71,13.191,13.191,0,0,1-3.112,4.785A12.961,12.961,0,0,1,66,73.933a23.106,23.106,0,0,1-7.738,1.43c-4.411.2-5.709.242-16.822.242s-12.415-.052-16.822-.256a23.558,23.558,0,0,1-7.741-1.458A12.865,12.865,0,0,1,12.1,70.779,12.615,12.615,0,0,1,8.988,66a23.577,23.577,0,0,1-1.454-7.738c-.156-4.362-.211-5.709-.211-16.77s.055-12.415.211-16.829A23.55,23.55,0,0,1,8.988,16.93,12.315,12.315,0,0,1,12.1,12.148,12.288,12.288,0,0,1,16.878,9.04a22.994,22.994,0,0,1,7.689-1.458c4.414-.156,5.712-.208,16.822-.208l.156.1Zm0,12.734A21.333,21.333,0,1,0,62.878,41.545,21.332,21.332,0,0,0,41.545,20.212Zm0,35.182A13.848,13.848,0,1,1,55.393,41.545,13.845,13.845,0,0,1,41.545,55.393ZM68.709,19.37a4.985,4.985,0,1,1-4.985-4.982A4.989,4.989,0,0,1,68.709,19.37Z"/>
</svg>
