<svg xmlns="http://www.w3.org/2000/svg" viewBox="0 0 83.09 83.09">
  <defs>
    <style>
      .cls-1 {
        fill: #fff;
      }
    </style>
  </defs>
  <path id="linkedin" class="cls-1" d="M70.789,70.807h-12.3V51.526c0-4.6-.093-10.514-6.412-10.514-6.415,0-7.4,5-7.4,10.175v19.62h-12.3V31.159h11.82v5.4h.159c1.651-3.116,5.667-6.4,11.667-6.4,12.467,0,14.773,8.205,14.773,18.886V70.807ZM18.477,25.734a7.146,7.146,0,1,1,7.146-7.149A7.139,7.139,0,0,1,18.477,25.734Zm6.169,45.073H12.308V31.159H24.647ZM76.945,0H6.131A6.058,6.058,0,0,0,0,5.986V77.1A6.056,6.056,0,0,0,6.131,83.09h70.8A6.079,6.079,0,0,0,83.09,77.1V5.986A6.081,6.081,0,0,0,76.934,0Z"/>
</svg>
