<svg xmlns="http://www.w3.org/2000/svg" viewBox="0 0 75.688 75.688">
  <defs>
    <style>
      .cls-1 {
        fill: none;
      }

      .cls-2 {
        fill: rgba(116,92,242,0.97);
      }
    </style>
  </defs>
  <g id="round-menu-24px" transform="translate(-1704.312 -70)">
    <g id="Bounding_Boxes" transform="translate(1704.312 70)">
      <path id="Path_1" data-name="Path 1" class="cls-1" d="M0,0H75.688V75.688H0Z"/>
    </g>
    <g id="Rounded" transform="translate(1713.773 88.922)">
      <path id="Path_2" data-name="Path 2" class="cls-2" d="M6.154,43.844H56.613a3.163,3.163,0,0,0,3.154-3.154h0a3.163,3.163,0,0,0-3.154-3.154H6.154A3.163,3.163,0,0,0,3,40.691H3A3.163,3.163,0,0,0,6.154,43.844Zm0-15.768H56.613a3.163,3.163,0,0,0,3.154-3.154h0a3.163,3.163,0,0,0-3.154-3.154H6.154A3.163,3.163,0,0,0,3,24.922H3A3.163,3.163,0,0,0,6.154,28.076ZM3,9.154H3a3.163,3.163,0,0,0,3.154,3.154H56.613a3.163,3.163,0,0,0,3.154-3.154h0A3.163,3.163,0,0,0,56.613,6H6.154A3.163,3.163,0,0,0,3,9.154Z" transform="translate(-3 -6)"/>
    </g>
  </g>
</svg>
