<svg xmlns="http://www.w3.org/2000/svg" viewBox="0 0 160.082 123.19">
  <defs>
    <style>
      .cls-1, .cls-4, .cls-5, .cls-9 {
        fill: none;
      }

      .cls-1, .cls-2, .cls-4 {
        stroke: rgba(116,92,242,0.97);
      }

      .cls-1 {
        stroke-width: 5px;
      }

      .cls-11, .cls-2 {
        fill: rgba(116,92,242,0.97);
      }

      .cls-3 {
        fill: #fff;
      }

      .cls-4, .cls-5 {
        stroke-width: 2px;
      }

      .cls-5, .cls-6 {
        stroke: #745cf2;
      }

      .cls-10, .cls-6, .cls-7 {
        fill: #745cf2;
      }

      .cls-6 {
        stroke-width: 3px;
      }

      .cls-10, .cls-11, .cls-8 {
        stroke: none;
      }
    </style>
  </defs>
  <g id="ui-ux-design" transform="translate(-1326 -2819.5)">
    <g id="Rectangle_41" data-name="Rectangle 41" class="cls-1" transform="translate(1326 2819.5)">
      <rect class="cls-8" width="160.082" height="123.19" rx="8"/>
      <rect class="cls-9" x="2.5" y="2.5" width="155.082" height="118.19" rx="5.5"/>
    </g>
    <path id="Path_12" data-name="Path 12" class="cls-1" d="M0,0H156.475" transform="translate(1326.329 2836.958)"/>
    <g id="Ellipse_16" data-name="Ellipse 16" class="cls-2" transform="translate(1452.484 2826.747)">
      <circle class="cls-8" cx="1.976" cy="1.976" r="1.976"/>
      <circle class="cls-9" cx="1.976" cy="1.976" r="1.476"/>
    </g>
    <g id="Ellipse_16-2" data-name="Ellipse 16" class="cls-2" transform="translate(1460.389 2826.747)">
      <circle class="cls-8" cx="1.976" cy="1.976" r="1.976"/>
      <circle class="cls-9" cx="1.976" cy="1.976" r="1.476"/>
    </g>
    <g id="Ellipse_16-3" data-name="Ellipse 16" class="cls-2" transform="translate(1468.295 2826.747)">
      <circle class="cls-8" cx="1.976" cy="1.976" r="1.976"/>
      <circle class="cls-9" cx="1.976" cy="1.976" r="1.476"/>
    </g>
    <g id="Path_60" data-name="Path 60" class="cls-3" transform="translate(1367.775 2861.083) rotate(-40)">
      <path class="cls-8" d="M 21.00846099853516 74.30451202392578 L 1.499995231628418 74.30451202392578 L 1.499995231628418 10 C 1.499995231628418 5.313089370727539 5.313084125518799 1.500000476837158 9.999995231628418 1.500000476837158 L 12.50846195220947 1.500000476837158 C 17.19537353515625 1.500000476837158 21.00846099853516 5.313089370727539 21.00846099853516 10 L 21.00846099853516 74.30451202392578 Z"/>
      <path class="cls-10" d="M 10.00000381469727 2.999992370605469 C 6.140192031860352 2.999992370605469 3.000003814697266 6.140182495117188 3.000003814697266 9.999992370605469 L 3.000003814697266 72.80450439453125 L 19.50845336914063 72.80450439453125 L 19.50845336914063 9.999992370605469 C 19.50845336914063 6.140182495117188 16.36826705932617 2.999992370605469 12.50845336914063 2.999992370605469 L 10.00000381469727 2.999992370605469 M 10.00000381469727 -7.62939453125e-06 L 12.50845336914063 -7.62939453125e-06 C 18.03130340576172 -7.62939453125e-06 22.50845336914063 4.477142333984375 22.50845336914063 9.999992370605469 L 22.50845336914063 75.80450439453125 L 3.814697265625e-06 75.80450439453125 L 3.814697265625e-06 9.999992370605469 C 3.814697265625e-06 4.477142333984375 4.477153778076172 -7.62939453125e-06 10.00000381469727 -7.62939453125e-06 Z"/>
    </g>
    <line id="Line_13" data-name="Line 13" class="cls-4" y2="62.146" transform="translate(1384.365 2862.763) rotate(-40)"/>
    <line id="Line_14" data-name="Line 14" class="cls-5" x2="18.757" transform="translate(1376.894 2869.033) rotate(-40)"/>
    <path id="Path_34" data-name="Path 34" class="cls-5" d="M-623.315,1905.109l10.287,18.143.023-.04,10.433-18.112" transform="translate(669.748 1058.139) rotate(-40)"/>
    <path id="Path_31" data-name="Path 31" class="cls-6" d="M0,2.794s-1.01-.339.859,3.143c.938,1.748,4.586,6.534,5.475,8.708A47.289,47.289,0,0,1,9.271,28.38s8.137-7.4,11.632-14.425S23.127-2.4,23.127-2.4" transform="matrix(0.616, 0.788, -0.788, 0.616, 1379.688, 2899.966)"/>
    <g id="Path_33" data-name="Path 33" class="cls-3" transform="translate(1426.645 2845.456) rotate(40)">
      <path class="cls-8" d="M10.034,0c5.542,0,10.034,4.958,10.034,11.074V67.738c0,6.116-4.492,11.074-10.034,11.074S0,73.854,0,67.738V11.074C0,4.958,4.492,0,10.034,0Z"/>
      <path class="cls-11" d="M 10.03405475616455 3 C 6.15546703338623 3 3.000003814697266 6.621788024902344 3.000003814697266 11.07356262207031 L 3.000003814697266 67.73831176757813 C 3.000003814697266 72.19009399414063 6.15546703338623 75.81188201904297 10.03405475616455 75.81188201904297 C 13.91264247894287 75.81188201904297 17.0681037902832 72.19009399414063 17.0681037902832 67.73831176757813 L 17.0681037902832 11.07356262207031 C 17.0681037902832 6.621788024902344 13.91264247894287 3 10.03405475616455 3 M 10.03405475616455 0 C 15.57571792602539 0 20.06810569763184 4.957801818847656 20.06810569763184 11.07356262207031 L 20.06810569763184 67.73831176757813 C 20.06810569763184 73.85408020019531 15.57571792602539 78.81188201904297 10.03405475616455 78.81188201904297 C 4.492404937744141 78.81188201904297 3.814697265625e-06 73.85408020019531 3.814697265625e-06 67.73831176757813 L 3.814697265625e-06 11.07356262207031 C 3.814697265625e-06 4.957801818847656 4.492404937744141 0 10.03405475616455 0 Z"/>
    </g>
    <ellipse id="Ellipse_21" data-name="Ellipse 21" class="cls-7" cx="13.62" cy="10.904" rx="13.62" ry="10.904" transform="translate(1382.809 2892.226) rotate(40)"/>
    <path id="Path_35" data-name="Path 35" class="cls-7" d="M-311.828,1545.624l4-3.661.818,4.7-3.945-1.044" transform="translate(1743 1378)"/>
    <path id="Path_36" data-name="Path 36" class="cls-7" d="M-366.6,1490.575l-3.324-7.844,7.451-8.53,6.559.677,3.245,2.549.784,1.765Z" transform="translate(1743 1378)"/>
  </g>
</svg>
