<svg xmlns="http://www.w3.org/2000/svg" viewBox="0 0 99.443 83.094">
  <defs>
    <style>
      .cls-1 {
        fill: #fff;
      }
    </style>
  </defs>
  <path id="youtube" class="cls-1" d="M97.372,16.447C96.2,11.425,92.918,7.5,88.717,6.1,80.966,3.616,49.771,3.616,49.771,3.616S18.654,3.566,10.824,6.1c-4.2,1.4-7.483,5.326-8.655,10.348A184.361,184.361,0,0,0,.006,45.215,184.352,184.352,0,0,0,2.169,73.875c1.172,5.022,4.454,8.946,8.655,10.348,7.743,2.488,38.947,2.488,38.947,2.488s31.112,0,38.947-2.488c4.2-1.4,7.483-5.326,8.655-10.348a184.41,184.41,0,0,0,2.072-28.659,184.408,184.408,0,0,0-2.072-28.769ZM39.814,63.012V27.364L65.779,45.215Z" transform="translate(-0.005 -3.616)"/>
</svg>
